<?xml version="1.0" encoding="utf-8"?>
<!-- Generator: Adobe Illustrator 15.0.2, SVG Export Plug-In . SVG Version: 6.00 Build 0)  -->
<!DOCTYPE svg PUBLIC "-//W3C//DTD SVG 1.1//EN" "http://www.w3.org/Graphics/SVG/1.1/DTD/svg11.dtd">
<svg version="1.1" id="Шар_1" xmlns="http://www.w3.org/2000/svg" xmlns:xlink="http://www.w3.org/1999/xlink" x="0px" y="0px"
	 width="20px" height="20px" viewBox="0 0 20 20" enable-background="new 0 0 20 20" xml:space="preserve">
<g id="BulletChart">
	<path id="Фігура-9" fill="#D66244" d="M1,15.99v-5.989h5.999v5.989H1z M1,2.001h3.999v5.99H1V2.001z"/>
	<path id="Фігура-9-копія-7" fill="#70A593" d="M15.004,7.991v-5.99h3.994v5.99H15.004z M18.996,15.99h-6.994v-5.989
		h6.994V15.99z"/>
	<path id="Фігура-9-копія-7_1_" fill="#EAC282" d="M4.999,7.991v-5.99h10.005v5.99H4.999z M12.002,15.99H6.999v-5.989
		h5.003V15.99z"/>
	<path id="Фігура-9-копія-2" fill="#808080" d="M17,18.996V17h0.999v1.996H17z M9,17h0.999v1.996H9V17z M1,17h0.999
		v1.996H1V17z"/>
	<path id="Фігура-10" fill="#808080" d="M1,6V4h11v2H1z M9,14H1v-2h8V14z"/>
</g>
</svg>
